PathFileType	4	(X/Y/Z)	c:/Users/goper/Files/vsCode/490R/osim_files/C12/C12_Slow_06.trc
DataRate	CameraRate	NumFrames	NumMarkers	Units                	OrigDataRate	OrigDataStartFrame	OrigNumFrames
120.00	120.00	6	36	mm	120.0	1143	1306
                Frame#	Time	LPSIS			LASIS			LTH1			LTH2			LTH3			LTH4			LLFE			LMFE			LSH1			LSH2			LSH3			LSH4			LLMAL			LMMAL			LCAL			LMTP5			LTOE			LMTP1			RPSIS			RASIS			RTH1			RTH2			RTH3			RTH4			RLFE			RMFE			RSH1			RSH2			RSH3			RSH4			RLMAL			RMMAL			RCAL			RMTP1			RTOE			RMTP5		
		X1	Y1	Z1	X2	Y2	Z2	X3	Y3	Z3	X4	Y4	Z4	X5	Y5	Z5	X6	Y6	Z6	X7	Y7	Z7	X8	Y8	Z8	X9	Y9	Z9	X10	Y10	Z10	X11	Y11	Z11	X12	Y12	Z12	X13	Y13	Z13	X14	Y14	Z14	X15	Y15	Z15	X16	Y16	Z16	X17	Y17	Z17	X18	Y18	Z18	X19	Y19	Z19	X20	Y20	Z20	X21	Y21	Z21	X22	Y22	Z22	X23	Y23	Z23	X24	Y24	Z24	X25	Y25	Z25	X26	Y26	Z26	X27	Y27	Z27	X28	Y28	Z28	X29	Y29	Z29	X30	Y30	Z30	X31	Y31	Z31	X32	Y32	Z32	X33	Y33	Z33	X34	Y34	Z34	X35	Y35	Z35	X36	Y36	Z36

1143	9.51667	0.00000	0.00000	0.00000	-4565.31592	1013.37225	442.94443	0.00000	0.00000	0.00000	-4420.94775	693.38031	506.19064	0.00000	0.00000	0.00000	-4469.21582	686.03088	513.72443	-4413.09863	511.63940	488.30417	0.00000	0.00000	0.00000	-4305.24658	479.09555	490.08264	-4269.59863	445.20993	492.72018	-4342.32715	433.55228	495.11826	0.00000	0.00000	0.00000	-4081.29932	219.74228	431.43820	0.00000	0.00000	0.00000	-4006.59229	246.51375	407.20001	-4098.56592	68.04797	438.37711	-4157.75635	78.43590	368.46097	0.00000	0.00000	0.00000	0.00000	0.00000	0.00000	-4596.67480	1021.92657	212.21393	0.00000	0.00000	0.00000	0.00000	0.00000	0.00000	-4661.83545	766.94012	174.87379	-4679.06250	724.45856	183.75507	0.00000	0.00000	0.00000	-4680.76611	545.91101	358.53870	-4664.32080	436.75595	198.06534	0.00000	0.00000	0.00000	-4722.55908	437.31110	216.92867	0.00000	0.00000	0.00000	-4705.13623	111.05830	253.80414	-4718.04688	123.12254	337.16449	0.00000	0.00000	0.00000	0.00000	0.00000	0.00000	-4379.45557	491.48312	579.60919	0.00000	0.00000	0.00000
1144	9.52500	-4405.62793	1048.11646	377.99255	0.00000	0.00000	0.00000	0.00000	0.00000	0.00000	-4437.32764	692.31104	507.83597	0.00000	0.00000	0.00000	-4485.47461	685.49725	515.21350	-4431.42285	510.58856	490.83423	0.00000	0.00000	0.00000	-4324.12109	480.00183	492.69547	-4287.66016	446.84552	495.15781	-4359.82275	433.31210	498.05081	-4320.00293	407.48578	497.82211	-4094.87451	226.88181	432.21475	-4145.72070	214.53645	369.26282	0.00000	0.00000	0.00000	-4103.31641	74.60162	438.59900	-4164.98584	79.71830	369.83704	0.00000	0.00000	0.00000	0.00000	0.00000	0.00000	-4607.57812	1023.62988	210.84586	0.00000	0.00000	0.00000	0.00000	0.00000	0.00000	-4672.34521	767.07617	174.09619	-4688.96191	724.37970	182.97018	0.00000	0.00000	0.00000	-4687.95361	546.29376	357.52838	-4672.40625	437.06439	199.58841	0.00000	0.00000	0.00000	-4728.56738	436.84357	216.70955	0.00000	0.00000	0.00000	-4705.43018	111.20181	254.05791	-4718.43164	123.13407	337.26028	0.00000	0.00000	0.00000	0.00000	0.00000	0.00000	0.00000	0.00000	0.00000	0.00000	0.00000	0.00000
1145	9.53333	-4415.98340	1048.78821	377.91452	0.00000	0.00000	0.00000	0.00000	0.00000	0.00000	0.00000	0.00000	0.00000	-4457.26123	692.34259	512.71967	-4501.74023	685.39551	516.74329	-4450.06982	509.59940	493.21454	0.00000	0.00000	0.00000	-4340.32031	480.96976	492.78500	-4306.33594	448.36926	497.60208	0.00000	0.00000	0.00000	-4337.61133	408.47806	500.65231	-4109.46973	234.14149	432.99844	0.00000	0.00000	0.00000	0.00000	0.00000	0.00000	-4109.19043	81.75877	438.78674	-4172.82373	80.79229	371.25433	0.00000	0.00000	0.00000	0.00000	0.00000	0.00000	-4618.33545	1025.24500	209.55910	0.00000	0.00000	0.00000	0.00000	0.00000	0.00000	-4682.14453	767.10449	173.18449	-4698.15234	724.21014	182.06396	0.00000	0.00000	0.00000	0.00000	0.00000	0.00000	-4677.51025	437.53009	199.38091	0.00000	0.00000	0.00000	-4733.72900	436.43704	216.37334	0.00000	0.00000	0.00000	-4705.56592	111.14982	254.15128	-4727.50146	131.21661	340.24869	0.00000	0.00000	0.00000	0.00000	0.00000	0.00000	-4396.41699	456.64929	524.84833	0.00000	0.00000	0.00000
1146	9.54167	-4427.22461	1050.24902	378.71765	0.00000	0.00000	0.00000	0.00000	0.00000	0.00000	0.00000	0.00000	0.00000	-4473.53027	691.73932	514.34106	-4517.97461	685.73395	518.56726	-4468.90479	508.91260	495.56674	-4390.58643	446.40945	542.19653	-4359.17041	481.28241	494.53537	-4325.17822	449.78433	499.91788	-4396.26172	433.51126	503.95374	0.00000	0.00000	0.00000	-4124.75879	240.80673	433.88623	-4135.91455	241.09857	358.37665	0.00000	0.00000	0.00000	-4115.28955	88.73161	437.51974	-4180.78320	81.47993	372.62289	-4150.43848	91.62214	332.87317	0.00000	0.00000	0.00000	-4628.83594	1026.68616	208.30745	0.00000	0.00000	0.00000	0.00000	0.00000	0.00000	-4691.13135	767.13251	172.13246	-4706.52539	724.07959	180.94870	0.00000	0.00000	0.00000	-4606.47314	456.25983	353.03671	-4681.43701	437.76062	199.25320	0.00000	0.00000	0.00000	-4737.86475	435.93549	215.70966	-4731.29395	387.76614	209.04153	-4705.74658	111.15766	254.21613	-4727.39941	130.89386	340.16019	0.00000	0.00000	0.00000	-4847.70898	56.84235	334.55862	0.00000	0.00000	0.00000	0.00000	0.00000	0.00000
1147	9.55000	-4437.11279	1050.93347	378.57263	0.00000	0.00000	0.00000	0.00000	0.00000	0.00000	-4484.02197	689.44043	511.17889	0.00000	0.00000	0.00000	-4533.36816	685.73230	519.98608	-4485.85791	508.97504	497.27097	0.00000	0.00000	0.00000	-4382.50146	482.60995	499.93304	-4344.46484	451.25745	502.21024	0.00000	0.00000	0.00000	0.00000	0.00000	0.00000	-4140.44727	247.09885	434.71521	-4152.10498	246.36772	358.77136	0.00000	0.00000	0.00000	-4122.45654	96.29196	436.67303	-4188.91455	81.90622	374.22009	-4157.57422	95.61990	332.33347	0.00000	0.00000	0.00000	-4639.13086	1028.00195	207.14560	0.00000	0.00000	0.00000	0.00000	0.00000	0.00000	-4699.25293	767.21381	170.98080	-4714.28223	724.20636	179.80469	0.00000	0.00000	0.00000	0.00000	0.00000	0.00000	-4682.47852	438.35648	197.41451	0.00000	0.00000	0.00000	-4741.29053	435.55533	214.86829	-4734.82617	388.23572	208.64142	-4705.86328	111.13855	254.21184	-4727.37158	130.68452	340.13193	0.00000	0.00000	0.00000	-4847.84131	56.73516	334.59558	0.00000	0.00000	0.00000	0.00000	0.00000	0.00000
1148	9.55833	-4446.54004	1051.39099	378.33694	0.00000	0.00000	0.00000	0.00000	0.00000	0.00000	-4495.85986	689.57281	509.68073	0.00000	0.00000	0.00000	-4548.46338	686.81018	521.54541	-4506.80176	508.78931	500.11969	0.00000	0.00000	0.00000	-4399.86914	482.95343	499.66229	-4364.02588	452.78256	504.27637	-4434.66846	434.77536	509.03690	0.00000	0.00000	0.00000	-4156.99268	253.21069	435.88388	-4168.83008	251.11275	359.42978	0.00000	0.00000	0.00000	-4130.91113	103.47096	436.45215	-4197.13916	81.70193	375.97672	-4166.71533	100.02287	332.55252	0.00000	0.00000	0.00000	-4649.21973	1029.26062	206.14314	0.00000	0.00000	0.00000	-4629.36084	749.87592	153.34430	-4706.86084	767.37695	169.85965	0.00000	0.00000	0.00000	0.00000	0.00000	0.00000	-4615.52637	455.80164	351.51343	-4684.94922	438.61230	197.47723	0.00000	0.00000	0.00000	-4743.94482	435.10587	213.79527	-4737.42871	388.53357	208.17857	-4706.16406	111.28119	254.29036	-4727.20312	130.31285	340.07086	0.00000	0.00000	0.00000	-4847.89355	56.50380	334.59912	0.00000	0.00000	0.00000	0.00000	0.00000	0.00000
